<svg id="ed9f8758-2a0d-4248-95bc-b395ba71ceac" data-name="Layer 1" xmlns="http://www.w3.org/2000/svg" xmlns:xlink="http://www.w3.org/1999/xlink" width="865.76" height="682.89" viewBox="0 0 865.76 682.89"><defs><clipPath id="aa48ce20-0ca5-49a7-8c61-e186afa311d2"><path id="b7cb4f49-6943-445e-932f-cc7ceb777176" data-name="SVGID" d="M525.57,211A125.88,125.88,0,0,0,399.7,85.13q-1.53,0-3.06,0c-68.08,1.57-123,58-122.88,126.18a125.41,125.41,0,0,0,34.67,86.42,104.6,104.6,0,0,1,26.43,48l.83,3.54h128l.48-2.08a110.51,110.51,0,0,1,27.36-50.18A125.27,125.27,0,0,0,525.57,211Z" fill="none"/></clipPath><clipPath id="a54223d6-592c-4076-9197-1699edd41ba6"><path id="e7d93500-04fc-4523-bd2c-cbfcd062b33b" data-name="SVGID" d="M445.08,436.38s6.82-10.5,14.11-9.81l2.74,6.27s4.5.24,7.21,6.63,17.75,24.18,17.75,24.18l-21.78,22.6S446.93,448,447.87,441.81Z" fill="none"/></clipPath><clipPath id="b4a5accf-dfc8-4493-930a-fd053557dc2d"><path id="b4078522-8543-4f64-b3b7-538737bf5e4f" data-name="SVGID" d="M542.35,532.67s7.84,12.15,5,14.91c0,0-31.52-11.24-63.78,14.6-.6.47-1.18,1-1.78,1.46l-2.33-8.28,5.69-4.7s-1-4.11-1.85-9.28-1.49-11.86-.55-16.19c.09-.45-1.16-2.33-2.63-5.7h0a50.29,50.29,0,0,1-3.7-13.27,69.28,69.28,0,0,1,1.67-26.2,104.06,104.06,0,0,1,4.71-14.61c4.58-11.48,27.73-16.87,54.69-9.86A14.32,14.32,0,0,1,545.6,461C559.19,479.3,542.35,532.67,542.35,532.67Z" fill="none"/></clipPath></defs><g id="bfadbea0-9710-4c96-b6fb-f22c25356f11" data-name="freepik--background-simple--inject-78"><path d="M105.48,216.77s-51.82,107.48,21,215.71S349.31,597.87,469.36,646.76s244.72,25.08,304-55-22-137.23-22.12-251.41S772.48,196,695.44,99.49,429.53-18.33,286.7,53.21,105.48,216.77,105.48,216.77Z" fill="#fff" opacity="0.7" style="isolation:isolate"/><path d="M730.44,658.94s166.17-182.7,63.2-323.12-307.46-44.05-346.4-175.1S266.17,8.18,131.37,172.07,28.82,563.84,100.2,658.94Z" fill="#0071f2"/><path d="M730.44,658.94s166.17-182.7,63.2-323.12-307.46-44.05-346.4-175.1S266.17,8.18,131.37,172.07,28.82,563.84,100.2,658.94Z" fill="#fff" opacity="0.7" style="isolation:isolate"/></g><path d="M283,647.94V653a5.17,5.17,0,0,1-3,4.69c-7.11,3.3-26.49,10-54.26,1.7a6,6,0,0,1-4.16-4.57l-1.37-6.89Z" fill="#a7a9ac"/><ellipse cx="251.56" cy="647.94" rx="31.39" ry="9.93" fill="#bcbec0"/><rect x="246.33" y="563.12" width="8.14" height="83.71" fill="#a7a9ac"/><path d="M140.67,618.07l.51,10.22s16.88,10.74,25.57,1l-3.07-14.83Z" fill="#f9b499"/><path d="M226.07,626.76l.51,10.23s16.88,10.74,25.57,1l-3.07-14.83Z" fill="#f9b499"/><path d="M116.5,454.11s-3.44-14.42,12.35-12l19.23-.68s-2.75,9.61-1.38,12.7Z" fill="#f9b499"/><path d="M215.21,432.52a33.87,33.87,0,0,1-17.52,22.09H144V437.85l27-1.08a24.59,24.59,0,0,0,20.54-12.55c1.22-2.19,2.35-4.49,3.39-6.83a109.06,109.06,0,0,0,9-34.58c2.12-23.25,10.58-21.13,10.58-21.13Z" fill="#0071f2"/><path d="M215.21,432.52a33.87,33.87,0,0,1-17.52,22.09H144V449l.77-.05s29.17,2.05,47.93-4.77a23.37,23.37,0,0,0,15.4-21.47c.32-14.91,1.53-49.88,6.06-60.33a.16.16,0,0,1,.31.07Z" opacity="0.2"/><path d="M324.77,537.79S316.58,571,247,565.4c0,0-79.77-1.54-74.15-27.61a10.53,10.53,0,0,1,1.27-5,23.2,23.2,0,0,1,5.89-7.32l9.72-12.78,110-140.12a50.08,50.08,0,0,1,15.45,1.55c8.18,2.24,16.74,7.46,17.78,19.41C332.94,393.57,340.1,506.58,324.77,537.79Z" fill="#bcbec0"/><path d="M313.52,498.92c-3.58,51.13-59.08,48.63-59.08,48.63-57.23,0-77.89-13-80.29-14.72a23.2,23.2,0,0,1,5.89-7.32l9.72-12.78,110-140.12a50.08,50.08,0,0,1,15.45,1.55C324.16,412.27,313.52,498.92,313.52,498.92Z" opacity="0.2"/><path d="M559.93,222.17l9.54-2.39,22.5,37.5,24.21,2.05s4.09-40.57,12.61-45.69l7.5,11.25-6.9,69.7S598.45,309.78,580,277.05l-11.25-24.54S567.43,235.12,559.93,222.17Z" fill="#0071f2"/><path d="M559.93,222.17l9.54-2.39,22.5,37.5,24.21,2.05s4.09-40.57,12.61-45.69l7.5,11.25-6.9,69.7S598.45,309.78,580,277.05l-11.25-24.54S567.43,235.12,559.93,222.17Z" fill="#fff" opacity="0.4"/><path d="M643.11,204.44s-16.36,2.73-16.36,17.39c0,0,0,27.95-.34,53.52L629.82,321s24.88,16,65.79,3.41l9.55-84.89s7.16-24.2-5.12-29c0,0-16.36-7.15-33.4-8.18Z" fill="#0071f2"/><polygon points="650.27 183.3 648.91 211.94 658.11 196.26 668.34 194.21 669.02 176.14 667.32 172.73 650.27 183.3" fill="#f9b499"/><path d="M411.76,429.16H387.59a28.5,28.5,0,0,1-28.44-26.88l-1.32-23.2H441.5l-1.32,23.2A28.47,28.47,0,0,1,411.76,429.16Z" fill="#2f2e41"/><path d="M525.57,211A125.88,125.88,0,0,0,399.7,85.13q-1.53,0-3.06,0c-68.08,1.57-123,58-122.88,126.18a125.41,125.41,0,0,0,34.67,86.42,104.6,104.6,0,0,1,26.43,48l.83,3.54h128l.48-2.08a110.51,110.51,0,0,1,27.36-50.18A125.27,125.27,0,0,0,525.57,211Z" fill="#fff"/><g clip-path="url(#aa48ce20-0ca5-49a7-8c61-e186afa311d2)"><path d="M396.64,85.16c-68.08,1.57-123,58-122.88,126.18a125.41,125.41,0,0,0,34.67,86.42,104.6,104.6,0,0,1,26.43,48l.83,3.54h128l.48-2.08a110.3,110.3,0,0,1,27.38-50.18A125.9,125.9,0,0,0,396.64,85.16Zm2.62,227.51a112.41,112.41,0,1,1,112.42-112.4,112.4,112.4,0,0,1-112.42,112.4Z" fill="#0071f2" opacity="0.4"/></g><path d="M356.71,412.9h85.93A47.26,47.26,0,0,0,467,374.18l2.18-38.52H330.21l2.16,38.52A47.33,47.33,0,0,0,356.71,412.9Z" fill="#0071f2"/><path d="M468.5,349.65,333.42,360.54a5.17,5.17,0,0,1-5.57-4.7h0a5.19,5.19,0,0,1,4.71-5.57l135.11-10.94a5.17,5.17,0,0,1,5.57,4.7h0a5.18,5.18,0,0,1-4.7,5.61Z" fill="#0071f2"/><path d="M468.47,370.09,334.83,380.88a5.18,5.18,0,0,1-5.56-4.7h0a5.17,5.17,0,0,1,4.7-5.57l133.67-10.9a5.17,5.17,0,0,1,5.56,4.71h0a5.15,5.15,0,0,1-4.59,5.66Z" fill="#0071f2"/><path d="M464.35,391,341.2,400.92a5.19,5.19,0,0,1-5.57-4.71h0a5.18,5.18,0,0,1,4.71-5.58l123.14-9.94a5.19,5.19,0,0,1,5.57,4.7h0A5.19,5.19,0,0,1,464.35,391Z" fill="#0071f2"/><g opacity="0.2"><path d="M468.5,349.65,333.42,360.54a5.17,5.17,0,0,1-5.57-4.7h0a5.19,5.19,0,0,1,4.71-5.57l135.11-10.94a5.17,5.17,0,0,1,5.57,4.7h0a5.18,5.18,0,0,1-4.7,5.61Z"/><path d="M468.47,370.09,334.83,380.88a5.18,5.18,0,0,1-5.56-4.7h0a5.17,5.17,0,0,1,4.7-5.57l133.67-10.9a5.17,5.17,0,0,1,5.56,4.71h0a5.15,5.15,0,0,1-4.59,5.66Z"/><path d="M464.35,391,341.2,400.92a5.19,5.19,0,0,1-5.57-4.71h0a5.18,5.18,0,0,1,4.71-5.58l123.14-9.94a5.19,5.19,0,0,1,5.57,4.7h0A5.19,5.19,0,0,1,464.35,391Z"/></g><path d="M456.1,398.21c4.18,0-2.23,6.77-2.23,6.77A44.56,44.56,0,0,1,451,419.42l13,20.07-11.16,8.87-11.34-23s-9.89-3.55-7.51-9.41c1.47-3.7,6.27-4.11,6.27-4.11A88,88,0,0,1,456.1,398.21Z" fill="#f9b499"/><path d="M445.08,436.38s6.82-10.5,14.11-9.81l2.74,6.27s4.5.24,7.21,6.63,17.75,24.18,17.75,24.18l-21.78,22.6S446.93,448,447.87,441.81Z" fill="#0071f2"/><g clip-path="url(#a54223d6-592c-4076-9197-1699edd41ba6)"><path d="M445.08,436.38s6.82-10.5,14.11-9.81l2.74,6.27s4.5.24,7.21,6.63,17.75,24.18,17.75,24.18l-21.78,22.6S446.93,448,447.87,441.81Z" opacity="0.2" style="isolation:isolate"/></g><path d="M498.51,382.59s-27.55,4.06-22.64,35.87,1.83,36.29,2.12,49.39,8.9,18.41,8.9,18.41l6.73-22.72s-3.36,4.31-2.24-12.43,1.39-38.23,1.39-38.23" fill="#2f2e41"/><g opacity="0.3"><path d="M482.44,461.28h-.11a.59.59,0,0,1-.48-.69c2.25-11.71-.81-28.81-.84-29a.59.59,0,0,1,1.17-.21c0,.17,3.13,17.49.85,29.41A.6.6,0,0,1,482.44,461.28Z"/></g><path d="M420.83,454.42A36.83,36.83,0,0,1,416,442.14c1.74-2.27.75-12.84.81-13.91s-5.62-6.4-7.83-13.84a7.57,7.57,0,0,0-2.45,5.12c.14,3.14,1.66,5.51,1.1,6-3,2.82-10.85-.5-13.24-1.35-5.27-1.85-7.84.9-5.17,3.83.94,1,3,.28,2.79,2.82s-.58.34.77,4.44.86,5.39,3.93,7.45l7.95,5.33L411,461.63Z" fill="#f9b499"/><path d="M485.62,555.94s11-16.23,38.31-17.14,26,15.42,26,15.42,14.2,20.83,12.54,37.13-23,30.81-23,30.81,43.63,10.2,48.61,8.09,15.12,19.55,11.21,24.41S472,651.21,472,651.21s-12.27-14.44-12.82-24.54,27.17-48.82,26.42-50.67S485.62,555.94,485.62,555.94Z" fill="#2f2e41"/><path d="M485.62,555.94s11-16.23,38.31-17.14,26,15.42,26,15.42,14.2,20.83,12.54,37.13-23,30.81-23,30.81,43.63,10.2,48.61,8.09,15.12,19.55,11.21,24.41S472,651.21,472,651.21s-12.27-14.44-12.82-24.54,27.17-48.82,26.42-50.67S485.62,555.94,485.62,555.94Z" opacity="0.2"/><path d="M531.85,574.35s3.65,30.23-11.89,35.48l-51.19,20.59s71.23,6.16,82.08,4,26.07,19.82,26.07,19.82h-130c-22.15,0-34.81-17.55-30.34-31.68s65.12-55.74,65.12-55.74-3.14-15.25,30.12-26.48C541.85,530.18,531.85,574.35,531.85,574.35Z" fill="#2f2e41"/><path d="M542.35,532.67s7.84,12.15,5,14.91c0,0-31.52-11.24-63.78,14.6-.6.47-1.18,1-1.78,1.46l-2.33-8.28,5.69-4.7s-1-4.11-1.85-9.28-1.49-11.86-.55-16.19c.09-.45-1.16-2.33-2.63-5.7h0a50.29,50.29,0,0,1-3.7-13.27,69.28,69.28,0,0,1,1.67-26.2,104.06,104.06,0,0,1,4.71-14.61c4.58-11.48,27.73-16.87,54.69-9.86A14.32,14.32,0,0,1,545.6,461C559.19,479.3,542.35,532.67,542.35,532.67Z" fill="#0071f2"/><g clip-path="url(#b4a5accf-dfc8-4493-930a-fd053557dc2d)"><path d="M476.45,506.25a69.08,69.08,0,0,1,1.68-26.2l5.71-1.82S487.55,488.9,476.45,506.25Z" opacity="0.2" style="isolation:isolate"/><path d="M483.35,541.41c-.86-5.37-1.49-11.86-.55-16.18.09-.46-1.16-2.34-2.63-5.71,0,0,13.15,10.31,18.34,9.41C501.65,528.36,491.72,535.59,483.35,541.41Z" opacity="0.2" style="isolation:isolate"/><path d="M542.35,532.67s7.84,12.15,5,14.91c0,0-31.52-11.24-63.78,14.6,6.17-7.84,15.68-16.9,27.34-19.6,21.58-5,30-4.26,30-4.26l-7-9.07s-23.52,0-35.45-17.85a67.11,67.11,0,0,0,19.15,3.35c8.78.19,19.14-7.16,22.29-9.58-2.68,1.76-11,5-24.77-8.81-17.06-17.06-17.91-48.84,18.78-39.95a45,45,0,0,1,11.62,4.7C559.19,479.3,542.35,532.67,542.35,532.67Z" opacity="0.2" style="isolation:isolate"/></g><path d="M544,586.72a14.94,14.94,0,0,1-2.38,8.43,27.63,27.63,0,0,1-5.84,6.69,31.74,31.74,0,0,1-7.53,4.76,19,19,0,0,1-8.8,1.91l.41-.11c-2.48,1.75-5,3.31-7.65,4.81s-5.27,2.89-8,4.12-5.53,2.36-8.36,3.35a73.35,73.35,0,0,1-8.69,2.34c2.87-.88,5.73-1.75,8.48-2.9s5.51-2.28,8.17-3.63,5.31-2.71,7.87-4.22,5.09-3.12,7.5-4.83a.6.6,0,0,1,.4-.11,18,18,0,0,0,8.25-1.72,34.17,34.17,0,0,0,7.39-4.47,27.35,27.35,0,0,0,5.94-6.3A15.35,15.35,0,0,0,544,586.72Z" opacity="0.2"/><path d="M537.88,623a16.81,16.81,0,0,1-5.11,2.74,25.11,25.11,0,0,1-5.69,1.29,27.56,27.56,0,0,1-8.7-.55c-.94-.24-1.87-.51-2.78-.82,1.93.17,3.82.34,5.71.38l1.42,0,1.41-.05c.94,0,1.88-.11,2.81-.18a40.31,40.31,0,0,0,5.55-1A31.15,31.15,0,0,0,537.88,623Z" opacity="0.2"/><path d="M515.6,606.71a30.38,30.38,0,0,1-9.05-3.39,21,21,0,0,1-4-2.85,10,10,0,0,1-2.82-4,15.48,15.48,0,0,0,3.41,3.26,37.14,37.14,0,0,0,4,2.52c1.36.79,2.77,1.52,4.18,2.25Z" opacity="0.2"/><path d="M577.35,638c.34-9,8.64-5.25,8.64-5.25s6.07-8.92,12-6.84,7.4,5.18,16.74,8.47,22.05.71,25.5,9.6-1,13.87-22,12.24-26.65-2.3-26.65-2.3S576.64,656.06,577.35,638Z" fill="#0071f2"/><path d="M585.55,636.1a11.71,11.71,0,0,0,4.23,10.11" fill="none" stroke="#263238" stroke-linecap="round" stroke-linejoin="round"/><path d="M594.14,625.9c-4.48,1.79-5,12.09,5.33,18.66s12.45,1,19,6.46,16.84,6.27,22.76,2,1.08-12.54-10-16.93-14.6,0-20.68-3.36S603.69,622.09,594.14,625.9Z" fill="#bfbfbf"/><path d="M597.73,627.83c.09,1,.25,1.92.31,2.88s.13,1.91.15,2.87a26.76,26.76,0,0,1-.46,5.76,23,23,0,0,1-.73-5.75,28,28,0,0,1,.12-2.89A9.27,9.27,0,0,1,597.73,627.83Z" opacity="0.2"/><path d="M603,628.38a45.51,45.51,0,0,1,.6,7.79,44.56,44.56,0,0,1-.6,7.8,44.55,44.55,0,0,1-.59-7.8A45.5,45.5,0,0,1,603,628.38Z" opacity="0.2"/><path d="M608.46,632.74a32.74,32.74,0,0,1,.59,6.6,32,32,0,0,1-.59,6.6,32,32,0,0,1-.6-6.6A32.75,32.75,0,0,1,608.46,632.74Z" opacity="0.2"/><path d="M614.51,636.1a19.4,19.4,0,0,1,.24,5.09,19,19,0,0,1-1,5,21.82,21.82,0,0,1,.71-10.11Z" opacity="0.2"/><path d="M621.24,636.17a42.42,42.42,0,0,1,0,14.1,41.72,41.72,0,0,1,0-14.1Z" opacity="0.2"/><path d="M627.82,637.6a49.9,49.9,0,0,1,0,15.43,49.9,49.9,0,0,1,0-15.43Z" opacity="0.2"/><path d="M635.24,640.31a29,29,0,0,1,.69,11.68,29,29,0,0,1-.69-11.68Z" opacity="0.2"/><path d="M557,629.87a48,48,0,0,0-16.4,6.52s-3.31-4.87-6.41-.12-.85,21.43,6.41,18.09c0,0,10.37,3.42,31.28,1.33s1-13.59,1-13.59Z" fill="#0071f2"/><path d="M559,630c-8.14-1.66-12.72,12.21-8.88,18.82s7.09,6.64,21.58,6.64,28.94.52,28.05-13.37-20.7-10.36-25.42-8.61S563.3,630.87,559,630Z" fill="#bfbfbf"/><path d="M556.37,633.05a65.25,65.25,0,0,1,1,9.31,63.77,63.77,0,0,1-.19,9.37,73.65,73.65,0,0,1-.81-18.68Z" opacity="0.2"/><path d="M562.42,634.79a53.78,53.78,0,0,1,1.11,8.43,52.59,52.59,0,0,1-.07,8.51,52.65,52.65,0,0,1-1.12-8.43A53.77,53.77,0,0,1,562.42,634.79Z" opacity="0.2"/><path d="M567.61,635.66a53.63,53.63,0,0,1,1.11,8.43,52.47,52.47,0,0,1-.07,8.5,52.5,52.5,0,0,1-1.12-8.43A53.64,53.64,0,0,1,567.61,635.66Z" opacity="0.2"/><path d="M573.8,636.69a46.43,46.43,0,0,1,1.39,7.89,47.52,47.52,0,0,1,.2,8A46.43,46.43,0,0,1,574,644.7,48.6,48.6,0,0,1,573.8,636.69Z" opacity="0.2"/><path d="M580,634.79a58.2,58.2,0,0,1,1.33,8.85,59.38,59.38,0,0,1,.13,9,59.26,59.26,0,0,1-1.32-8.85A60.7,60.7,0,0,1,580,634.79Z" opacity="0.2"/><path d="M586.44,634.79a55.37,55.37,0,0,1,1.63,8.4,52.79,52.79,0,0,1,.44,8.54,62.09,62.09,0,0,1-2.07-16.94Z" opacity="0.2"/><path d="M592.67,635.66a34,34,0,0,1,1.45,6.57,33.47,33.47,0,0,1,.27,6.72,38,38,0,0,1-1.72-13.29Z" opacity="0.2"/><path d="M539.43,639.11c.06,1,.06,2,.07,3s0,1.94,0,2.9a24,24,0,0,0,.75,5.72,6.86,6.86,0,0,1-1.47-2.67,11.88,11.88,0,0,1-.47-3,15.14,15.14,0,0,1,.21-3A11.72,11.72,0,0,1,539.43,639.11Z" opacity="0.2"/><path d="M496.61,451.05c-1.56.29-12.37.65-16.91,2.17-11.56,3.83-40.94,28.64-40.94,28.64l-20.2-35.66s-8.8-1.57-13.14,6.27l2.31,6.63a69.85,69.85,0,0,0-1.67,8.72c-.53,7.15,14.92,44.38,22.43,46.57,11.76,3.43,44.1-21,44.1-21s13.57-9,15-17.48" fill="#0071f2"/><path d="M483.51,393.3c7.76-15.07,21.95-9.82,21.95-9.82,27.62-5.25,28.47,26.92,31,43.9s11.65,20.87,14.24,35.11a38.2,38.2,0,0,1-.19,10.3,6.28,6.28,0,0,0-2.51-3.73c.53,18.41-10.36,27.53-11.05,28.07,7.71-10.6,6.77-17.47,6.77-17.47-3,10.79-14.52,21.4-14.52,21.4s-9.85-2.22-14.47-16.57c-4.09-12.76-9.54-17.25-9.86-17.45a93.7,93.7,0,0,1,8.21,23.16,219.43,219.43,0,0,1-14.6-24.86c-19.2-36.64-16.87-51.89-16.87-51.89" fill="#2f2e41"/><g opacity="0.3"><path d="M534.81,476.85a.59.59,0,0,1-.43-1c3.86-4,6.45-14.75,3.94-27.69a81.62,81.62,0,0,0-4-13.47c-2.24-6.17-5-13.85-8.12-30-2-10.2-5.35-16.4-10.06-18.42a9.67,9.67,0,0,0-8.38.68.61.61,0,0,1-.83-.18.59.59,0,0,1,.18-.82,10.72,10.72,0,0,1,9.48-.79c5.11,2.18,8.74,8.68,10.78,19.3,3.08,16,5.84,23.65,8.07,29.78a82.66,82.66,0,0,1,4,13.65c2.71,14-.3,24.69-4.25,28.75A.61.61,0,0,1,534.81,476.85Z"/></g><g opacity="0.3"><path d="M529.42,488.63a.63.63,0,0,1-.37-.12c-7.79-5.94-8.69-23.63-9.64-42.36-.19-3.63-.38-7.39-.62-11.09-1.3-19.77-4.38-33.29-10-43.85a.6.6,0,1,1,1.06-.56C515.55,401.37,518.67,415,520,435c.24,3.71.43,7.47.62,11.11.94,18.44,1.83,35.86,9.18,41.47a.59.59,0,0,1,.11.83A.58.58,0,0,1,529.42,488.63Z"/></g><g opacity="0.3"><path d="M517.77,475.24a.69.69,0,0,1-.2,0c-5.9-2-8.77-8.12-8.77-18.61,0-7.69-5.36-17.92-11.56-29.77-2.28-4.36-4.64-8.87-7-13.69-9.09-18.72,3.48-25.28,3.61-25.35a.6.6,0,0,1,.54,1.07c-.48.24-11.64,6.13-3.08,23.76,2.34,4.8,4.69,9.3,7,13.66,6.27,12,11.69,22.34,11.69,30.32,0,10.06,2.53,15.61,8,17.48a.6.6,0,0,1,.37.76A.61.61,0,0,1,517.77,475.24Z"/></g><path d="M453.87,405s-3.51,5.58-3.71,7.23" fill="none" stroke="#f7a48b" stroke-miterlimit="10"/><g opacity="0.2" style="isolation:isolate"><path d="M430.59,494.23a.59.59,0,0,1-.59-.52c-1.2-8.37,8.44-12.37,8.53-12.41a.6.6,0,1,1,.45,1.11c-.09,0-8.87,3.69-7.8,11.14a.6.6,0,0,1-.51.67Z"/></g><g opacity="0.2" style="isolation:isolate"><path d="M428.28,481a.6.6,0,0,1-.42-1c.15-.16,3.78-3.82,6.95-2.32a.6.6,0,0,1-.51,1.08c-2.4-1.13-5.56,2-5.59,2.07A.6.6,0,0,1,428.28,481Z"/></g><g opacity="0.2" style="isolation:isolate"><path d="M411.9,455.17a.59.59,0,0,1-.36-1.07c.24-.19,6-4.48,9.37-4a.6.6,0,0,1,.52.67.59.59,0,0,1-.68.51c-2.38-.31-6.94,2.63-8.5,3.79A.57.57,0,0,1,411.9,455.17Z"/></g><g opacity="0.2" style="isolation:isolate"><path d="M452,438.56a.63.63,0,0,1-.46-.2.6.6,0,0,1,.07-.84,24.14,24.14,0,0,1,10.17-5.24.6.6,0,1,1,.28,1.16,23.05,23.05,0,0,0-9.67,5A.6.6,0,0,1,452,438.56Z"/></g><g opacity="0.2" style="isolation:isolate"><path d="M478,490.13h-.4a.59.59,0,0,1-.56-.63.57.57,0,0,1,.63-.56c3.82.2,9.17-3.31,11.2-4.63.84-.56.95-.63,1.18-.63a.6.6,0,0,1,.6.6.59.59,0,0,1-.42.57c-.12.06-.36.23-.71.45C487.47,486.64,482.13,490.13,478,490.13Z"/></g><g opacity="0.2" style="isolation:isolate"><path d="M531.52,529.85c-11.48,0-21.57-7-26.89-11.54-5-4.27-8.91-9-8.91-10.27a.6.6,0,0,1,.6-.6.6.6,0,0,1,.59.58c.4,2.14,18.58,23.57,38.79,20.3a.61.61,0,0,1,.69.49.6.6,0,0,1-.5.69A27.09,27.09,0,0,1,531.52,529.85ZM496.91,508h0Z"/></g><rect x="80.56" y="488.66" width="8.41" height="172.76" fill="#a7a9ac"/><rect x="296.13" y="488.66" width="8.41" height="172.76" fill="#a7a9ac"/><polygon points="183.21 443.57 177.12 444.71 161.12 371.2 166.84 370.44 183.21 443.57" fill="#0071f2"/><polygon points="183.21 443.57 177.12 444.71 161.12 371.2 166.84 370.44 183.21 443.57" opacity="0.4"/><polygon points="58.66 371.2 74.66 443.95 177.12 444.71 161.12 371.2 58.66 371.2" fill="#0071f2"/><polygon points="58.66 371.2 74.66 443.95 177.12 444.71 161.12 371.2 58.66 371.2" fill="#fff" opacity="0.5"/><ellipse cx="117.7" cy="410.24" rx="8" ry="8.19" fill="#fff"/><polygon points="62.85 374.63 77.71 440.52 172.55 440.9 158.46 374.25 62.85 374.63" fill="none" stroke="#fff" stroke-miterlimit="10" stroke-width="0.5"/><polygon points="111.61 443.57 115.04 454.99 142.08 454.99 138.27 444.71 111.61 443.57" fill="#0071f2"/><polygon points="111.61 443.57 115.04 454.99 142.08 454.99 138.27 444.71 111.61 443.57" fill="#fff" opacity="0.2"/><polygon points="71.23 371.58 94.09 444.33 108.56 444.33 85.33 370.82 71.23 371.58" fill="#fff" opacity="0.08"/><polygon points="100.18 371.2 123.03 444.33 136.37 444.33 112.75 370.82 100.18 371.2" fill="#fff" opacity="0.08"/><rect x="99.8" y="454.61" width="59.04" height="9.1" fill="#2f2e41"/><rect x="99.8" y="454.61" width="59.04" height="9.1" opacity="0.2"/><path d="M261.29,535.74c-7.23,3.81-6.85,11.81-6.85,11.81l.38,76.17a28.54,28.54,0,0,1-11.95,5.39c-12.75,2.68-25.37-2.34-25.37-2.34l-4.95-84.18c-.74-18.47,8.19-30.12,8.73-30.8l0,0-39.61,13.33C161.12,530.79,166.07,546,166.07,546l2.18,68.19a6.27,6.27,0,0,1-3.05,5.66,27.26,27.26,0,0,1-9.49,3.11,55.16,55.16,0,0,1-19-.91,3.65,3.65,0,0,1-2.89-3.25l-8.52-92.6c-1.14-28.56,19.83-35,19.83-35q32.6-.15,65.66,0,38.9.16,77.15.71Z" fill="#2f2e41"/><path d="M228.54,496.89l-7.24,14.86-39.61,13.33C161.12,530.79,166.07,546,166.07,546l2.18,68.19a6.27,6.27,0,0,1-3.05,5.66,27.26,27.26,0,0,1-9.49,3.11c-2.48-17.1-13.48-89.6,5.93-108.77a13.66,13.66,0,0,1,4.53-2.92A219.83,219.83,0,0,1,228.54,496.89Z" opacity="0.2"/><path d="M261.29,535.74c-7.23,3.81-6.85,11.81-6.85,11.81l.38,76.17a28.54,28.54,0,0,1-11.95,5.39l-.24-.44s-7.62-86.08,5.71-97.5c0,0,25.52-19,28.19-39.23H288C292.91,515.17,261.29,535.74,261.29,535.74Z" opacity="0.2"/><path d="M214.45,361.68l.76,102.45,68.17-.38,2.29-94.45s11.43-9.91,0-12.95c0,0-16-3.81-25.9-3.81C259.77,352.54,223.59,352.16,214.45,361.68Z" fill="#0071f2"/><path d="M235.77,361.3l5.34-7.62.76-6.1S231.59,345.68,235.77,361.3Z" fill="#0071f2"/><ellipse cx="238.63" cy="319.59" rx="17.71" ry="24.19" fill="#f9b499"/><path d="M222.06,311.4s-10.66-5.33-8.76-24.76c0,0,14.86,2.67,24-1.52,0,0,33.14-9.14,40.37,17.14,0,0,4,27-20.38,38.09V324.12l-3.23-7s.76-10.66-9.14-8.76c0,0-17.14,2.67-21.33-.76C223.59,307.59,222.44,308.35,222.06,311.4Z" fill="#2f2e41"/><path d="M215.21,433.66s47.61,7.62,60.56-33.51l9.52,6.47-1.91,57.13-68.17.38Z" opacity="0.2"/><polygon points="241.11 339.97 241.11 353.68 243.77 359.77 249.11 348.35 257.87 345.3 257.3 327.4 251.39 320.54 241.11 339.97" fill="#f9b499"/><path d="M240.73,343.4s13-2.67,14.85-16.76l1.71.76.58,17.9S250.63,349.11,240.73,343.4Z" fill="#f7a48b"/><path d="M186.72,454.61s-3.43-14.41,12.36-12l19.22-.69s-2.74,9.61-1.37,12.7Z" fill="#f9b499"/><path d="M107.94,659s-5.62-12.28,6.14-14.83l27.1-15.86s16.36,10.74,25.57,1c0,0,4.6,9.2,2,27.61Z" fill="#0071f2"/><path d="M193.34,667.67s-5.62-12.27,6.14-14.83L226.58,637s16.36,10.74,25.57,1c0,0,4.6,9.21,2,27.61Z" fill="#0071f2"/><polygon points="659.48 216.03 658.11 196.26 668.34 194.21 670.73 203.07 659.48 216.03" fill="#0071f2"/><polygon points="659.48 216.03 658.11 196.26 668.34 194.21 670.73 203.07 659.48 216.03" fill="#fff" opacity="0.4"/><polygon points="648.91 211.94 643.45 196.6 649.75 195.26 648.91 211.94" fill="#e6e7e8"/><polygon points="643.11 213.64 643.45 196.6 647.2 207.13 643.11 213.64" fill="#0071f2"/><polygon points="643.11 213.64 643.45 196.6 647.2 207.13 643.11 213.64" fill="#fff" opacity="0.4"/><path d="M539.47,197.28s13.3-2.05,19.44,9.89l8.86,12.61-7.84,2.39S548.34,202.05,539.47,197.28Z" fill="#f9b499"/><ellipse cx="486.87" cy="260.28" rx="59.91" ry="58.77" fill="#fff" opacity="0.48"/><path d="M567.92,265.72q.06-1.44.06-2.91c0-43.26-36.42-78.34-81.34-78.34-41.8,0-76.25,30.36-80.83,69.44,1.59-41.92,37.37-75.43,81.28-75.43,44.93,0,81.36,35.08,81.36,78.34A74.76,74.76,0,0,1,567.92,265.72Z" fill="#2f2e41"/><path d="M567.92,265.72q.06-1.44.06-2.91c0-43.26-36.42-78.34-81.34-78.34-41.8,0-76.25,30.36-80.83,69.44,1.59-41.92,37.37-75.43,81.28-75.43,44.93,0,81.36,35.08,81.36,78.34A74.76,74.76,0,0,1,567.92,265.72Z" opacity="0.2"/><path d="M568.79,252.51l145.3,12.59A12.91,12.91,0,0,1,725.85,279h0a12.91,12.91,0,0,1-14,11.83L566.14,278.25Z" fill="#2f2e41"/><path d="M629.82,321s-11,52.14-5.77,89.22l9.84,139.61,26.07.58L668.65,478,671,329.14S647.17,332,629.82,321Z" fill="#2f2e41"/><path d="M734.12,528.43l-3.49,2.88-16.21,13.34-38.81-46.93s-6.37-4.05-13.33-42.29l-5.22-49.24s3.35-44.35-33.72-37.41a305.59,305.59,0,0,1,4.35-37.27c.49-2.74,1-5.5,1.63-8.27l.49-2.21s25.56,16.08,65.81,3.41c0,0,11.27,16.86,5.47,71.32,0,0-2.9,66,.59,77.63C701.68,473.39,709.79,497.72,734.12,528.43Z" fill="#2f2e41"/><path d="M734.12,528.43l-3.49,2.88-16.21,13.34-38.81-46.93s-6.37-4.05-13.33-42.29l-5.22-49.24s3.35-44.35-33.72-37.41a305.59,305.59,0,0,1,4.35-37.27c.49-2.74,1-5.5,1.63-8.27l.49-2.21s25.56,16.08,65.81,3.41c0,0,11.27,16.86,5.47,71.32,0,0-2.9,66,.59,77.63C701.68,473.39,709.79,497.72,734.12,528.43Z" opacity="0.2"/><path d="M734.12,528.43l-3.48,2.89h0l-38.22-48.06c-15.65-18.55-4.63-56.78-4.63-56.78,5.2-33,4-92.11,4-92.11-27.81,8.9-61.51-2-64.13-2.85l-.17-.05,1.8-8.22.49-2.21s25.56,16.08,65.81,3.41c0,0,11.27,16.86,5.47,71.32,0,0-2.9,66,.59,77.63C701.68,473.39,709.79,497.72,734.12,528.43Z" opacity="0.2"/><path d="M638.53,560.29s-1.16,8.11-4.64,9.85c0,0,15.65,9.27,24.92,4.06l-.58-15.65Z" fill="#f9b499"/><path d="M720.21,552.18l4.64,8.11s16.8-1.16,20.85-12.16l-9.26-12.75Z" fill="#f9b499"/><path d="M760.77,566.66,745.7,548.13s-4.63,11-20.85,12.16c0,0-25.56,27.85-15.06,36.5,0,0,5.21,7.53,20.27-6.37Z" fill="#2f2e41"/><path d="M658.81,574.2v24.33L610,599a9.16,9.16,0,0,1-9.18-10.16h0a9.15,9.15,0,0,1,5.62-7.44l27.42-11.27S649,579.41,658.81,574.2Z" fill="#2f2e41"/><polygon points="650.27 183.3 649.75 194.21 668.67 185.5 672.21 167.84 650.27 183.3" fill="#f7a48b"/><path d="M670,163.87c-2.59,14.7-15.12,24.76-23.22,23.33s-12.57-14.51-10-29.21,11.27-25.47,19.37-24S672.64,149.17,670,163.87Z" fill="#f9b499"/><path d="M664.08,147.68s-30.51,7.16-30-9.72l.84-11.79a2.89,2.89,0,0,1,2.74-2.7c8.63-.46,37-1.09,53,9.39a5.94,5.94,0,0,1,2.7,5.2c-.44,10.43-3.51,43.18-25,44.9,0,0-4.6-1-1.53-14.32l.51-9.71s-2.56-.52-3.92,2.55Z" fill="#2f2e41"/><ellipse cx="667.32" cy="165.83" rx="5.11" ry="6.9" fill="#f9b499"/><path d="M658.11,196.26,659.48,216a12.26,12.26,0,0,0-10.57-4.09Q653.52,204.1,658.11,196.26Z" fill="#e6e7e8"/><path d="M702.09,297.17c-11.59,21.48-88,2-88,2l.2-3,1.16-16.47c38.18,6.14,58,1,58,1,18.76,0,13.3-48.41,13.3-48.41.25-16,10.21-18.06,15.5-18a6.45,6.45,0,0,1,5.08,2.5,31.74,31.74,0,0,1,3,4.95C724,249.1,702.09,297.17,702.09,297.17Z" fill="#0071f2"/><path d="M702.09,297.17c-11.59,21.48-88,2-88,2l.2-3,1.16-16.47c38.18,6.14,58,1,58,1,18.76,0,13.3-48.41,13.3-48.41.25-16,10.21-18.06,15.5-18a6.45,6.45,0,0,1,5.08,2.5,31.74,31.74,0,0,1,3,4.95C724,249.1,702.09,297.17,702.09,297.17Z" fill="#fff" opacity="0.4"/><path d="M702.09,297.17c-11.59,21.48-88,2-88,2l.2-3c6.68,1.4,72.28,14.33,82.64-8.62,0,0,15-30.35,12.95-65.81h.44C724,249.1,702.09,297.17,702.09,297.17Z" fill="#fff" opacity="0.4"/><path d="M613.45,297.85s-30.34-6.14-23.86-29.32c0,0,5.47-6.69,13.83,3.19a52.24,52.24,0,0,0,5.08,5.12l6.32,5.67Z" fill="#f9b499"/><rect x="630.42" y="550.44" width="33.02" height="12.75" rx="2.67" fill="#0071f2"/><rect x="710.94" y="535.67" width="33.02" height="12.75" rx="2.67" transform="translate(-178.28 593.52) rotate(-39.94)" fill="#0071f2"/><path d="M486.64,184.47c-41.8,0-76.25,30.36-80.83,69.44a77.19,77.19,0,0,0-.52,8.9c0,43.28,36.42,78.36,81.35,78.36,43.91,0,79.69-33.52,81.28-75.45q.06-1.44.06-2.91C568,219.55,531.56,184.47,486.64,184.47Zm.23,17.05c33.08,0,59.91,26.31,59.91,58.76S520,319.05,486.87,319.05,427,292.74,427,260.28,453.78,201.52,486.87,201.52Z" fill="#2f2e41"/><circle cx="257.29" cy="321.88" r="5.52" fill="#f9b499"/><polygon points="249.87 365.49 249.11 348.35 259.39 344.54 260.91 353.68 249.87 365.49" fill="#0071f2"/><polygon points="249.87 364.88 249.11 347.74 259.39 343.93 260.91 353.07 249.87 364.88" fill="#0071f2"/><polygon points="249.87 364.88 249.11 347.74 259.39 343.93 260.91 353.07 249.87 364.88" fill="#0071f2"/><rect x="158.84" y="454.61" width="64.37" height="9.52" fill="#2f2e41"/><path d="M219.4,437.09l41.89-.76s20.19,2.67,16.76-24.76c0,0-12.19-54.84,14.86-51,0,0,12.57,2.29,10.28,37.71,0,0,4.19,54.85-19.81,59l-65.51,1.9S213.68,452,219.4,437.09Z" fill="#0071f2"/><polygon points="243.77 359.77 249.11 347.74 249.87 364.88 243.77 359.77" fill="#0071f2"/><polygon points="243.77 359.77 249.11 347.74 249.87 364.88 243.77 359.77" opacity="0.2"/><rect x="67.04" y="463.71" width="255.84" height="27.52" rx="3.78" fill="#d1d3d4"/></svg>